<svg width="1200" height="900" viewBox="0 0 1200 900" fill="none" xmlns="http://www.w3.org/2000/svg" role="img" aria-labelledby="title desc">
  <title id="title">Ilustracion de derecho de familia</title>
  <desc id="desc">Una ilustracion con figuras de familia, documentos legales y elementos visuales en tonos petroleo y dorado.</desc>
  <rect width="1200" height="900" fill="#F7F4EC"/>
  <rect x="70" y="80" width="1060" height="740" rx="36" fill="#10393A"/>
  <circle cx="950" cy="180" r="110" fill="#C9A24A" fill-opacity="0.16"/>
  <circle cx="1060" cy="290" r="52" fill="#E0B95B" fill-opacity="0.18"/>
  <circle cx="180" cy="700" r="120" fill="#C9A24A" fill-opacity="0.12"/>
  <rect x="150" y="155" width="450" height="590" rx="28" fill="#F4EFE4"/>
  <rect x="190" y="210" width="250" height="24" rx="12" fill="#C9A24A" fill-opacity="0.78"/>
  <rect x="190" y="262" width="315" height="16" rx="8" fill="#8E9D9D" fill-opacity="0.55"/>
  <rect x="190" y="298" width="260" height="16" rx="8" fill="#8E9D9D" fill-opacity="0.4"/>
  <rect x="190" y="370" width="370" height="240" rx="24" fill="#EAE0C6"/>
  <path d="M375 420C330 420 294 456 294 501V555H456V501C456 456 420 420 375 420Z" fill="#C9A24A"/>
  <circle cx="375" cy="385" r="48" fill="#C9A24A"/>
  <path d="M290 475C258 475 232 501 232 533V575H348V533C348 501 322 475 290 475Z" fill="#D8B15B" fill-opacity="0.9"/>
  <circle cx="290" cy="448" r="34" fill="#D8B15B" fill-opacity="0.9"/>
  <path d="M462 475C430 475 404 501 404 533V575H520V533C520 501 494 475 462 475Z" fill="#D8B15B" fill-opacity="0.9"/>
  <circle cx="462" cy="448" r="34" fill="#D8B15B" fill-opacity="0.9"/>
  <rect x="670" y="195" width="360" height="480" rx="30" fill="#F4EFE4"/>
  <path d="M850 260L910 320H790L850 260Z" fill="#C9A24A"/>
  <rect x="842" y="320" width="16" height="95" rx="8" fill="#C9A24A"/>
  <path d="M765 345C792 345 814 367 814 394C814 421 792 443 765 443C738 443 716 421 716 394C716 367 738 345 765 345Z" fill="#10393A" fill-opacity="0.14"/>
  <path d="M935 345C962 345 984 367 984 394C984 421 962 443 935 443C908 443 886 421 886 394C886 367 908 345 935 345Z" fill="#10393A" fill-opacity="0.14"/>
  <path d="M734 378H796L784 403C776 420 754 420 746 403L734 378Z" fill="#C9A24A" fill-opacity="0.92"/>
  <path d="M904 378H966L954 403C946 420 924 420 916 403L904 378Z" fill="#C9A24A" fill-opacity="0.92"/>
  <rect x="748" y="495" width="204" height="18" rx="9" fill="#8E9D9D" fill-opacity="0.55"/>
  <rect x="718" y="535" width="264" height="18" rx="9" fill="#8E9D9D" fill-opacity="0.36"/>
  <rect x="748" y="575" width="184" height="18" rx="9" fill="#8E9D9D" fill-opacity="0.28"/>
  <path d="M252 682C252 658 271 639 295 639H479C503 639 522 658 522 682V683H252V682Z" fill="#10393A" fill-opacity="0.08"/>
  <path d="M730 682C730 658 749 639 773 639H927C951 639 970 658 970 682V683H730V682Z" fill="#10393A" fill-opacity="0.08"/>
</svg>